PathFileType	4	(X/Y/Z)	Patient4_TMGait_0pt7_01_left_26.trc.trc
DataRate	CameraRate	NumFrames	NumMarkers	Units	OrigDataRate	OrigDataStartFrame	OrigNumFrames
86.419753086420	86.419753086420	6	33	mm	86.419753086420	106	       141
Frame#	Time	Sacral			L.Shoulder			Chest			R.Shoulder			Neck			R.ASIS			L.ASIS			R.Thigh.Superior			R.Thigh.Lateral			R.Thigh.Inferior			R.Patella			L.Thigh.Superior			L.Thigh.Lateral			L.Thigh.Inferior			L.Patella			L.Shank.Superior			L.Shank.Lateral			L.Shank.Inferior			R.Shank.Superior			R.Shank.Lateral			R.Shank.Inferior			R.Heel			R.Midfoot.Superior			R.Midfoot.Lateral			R.Toe			L.Heel			L.Midfoot.Lateral			L.Midfoot.Superior			L.Toe			L.Elbow			L.Wrist			R.Elbow			R.Wrist			
		X1	Y1	Z1	X2	Y2	Z2	X3	Y3	Z3	X4	Y4	Z4	X5	Y5	Z5	X6	Y6	Z6	X7	Y7	Z7	X8	Y8	Z8	X9	Y9	Z9	X10	Y10	Z10	X11	Y11	Z11	X12	Y12	Z12	X13	Y13	Z13	X14	Y14	Z14	X15	Y15	Z15	X16	Y16	Z16	X17	Y17	Z17	X18	Y18	Z18	X19	Y19	Z19	X20	Y20	Z20	X21	Y21	Z21	X22	Y22	Z22	X23	Y23	Z23	X24	Y24	Z24	X25	Y25	Z25	X26	Y26	Z26	X27	Y27	Z27	X28	Y28	Z28	X29	Y29	Z29	X30	Y30	Z30	X31	Y31	Z31	X32	Y32	Z32	X33	Y33	Z33	

106	31.165000000000	769.893834218844	1014.326894611422	535.042656736139	957.109909586469	1430.259599015921	331.655071976307	1067.545489764536	1356.399250620496	486.886778515757	1002.752987607996	1440.112475635071	663.985387989884	977.929487311287	1493.418744590705	485.103884809671	1001.659109006037	942.622356927931	638.192586323454	969.512702649820	961.061328537673	364.991552874260	1035.829059965952	740.391136366779	611.343129000430	950.453851678559	637.978337357268	675.459770972110	1020.290328119380	581.422065647933	593.223591322417	1016.156746665024	494.131353722716	599.698417968498	1059.806641077608	794.581992855654	396.087036352467	1026.732670287721	666.928051963392	315.823729436049	1135.124009711655	611.552451251946	376.201198674148	1156.357452930194	524.132228362628	368.279065700739	1097.987082121900	451.368335376217	358.741589970752	963.827319321990	390.729453129801	310.084450367294	971.854610088481	259.653679248581	361.021358134258	989.521223907399	405.871210323956	609.272804559725	919.385008766607	303.555785289554	674.343137873237	959.791488102746	207.598301545663	611.357592003914	824.826503567470	42.527764903298	586.250418025025	995.469361758665	97.050637253342	619.879639042726	908.128964276812	36.429879127824	660.200223776198	1116.475014582943	44.312398108857	649.021515470476	794.945397257994	167.086902508615	398.967147168894	856.192516884493	132.602624755250	316.219926857409	959.229448808713	153.831043210920	336.885888576121	1050.048006986021	53.652667870413	303.453726752006	883.702990560560	1079.352885004883	238.650216108179	954.491291466816	827.307853578594	233.309599427205	1050.021382308477	1117.421592667449	824.528296716272	1290.148386704261	1053.927661857856	761.292342320464	
107	31.176571428571	767.771696653264	1015.096462750967	536.185130296516	955.309049981464	1430.086132305673	331.832213024074	1066.545074365758	1356.037641465099	486.358491042620	1003.337576964465	1440.435809399906	663.773841767004	977.139987935828	1493.418328390771	485.065369736809	999.827088906497	942.113165125529	637.713696687494	966.166311679339	961.771710644428	364.708022453958	1032.175076466546	739.675145426862	609.736360993062	946.809825087754	637.874541837003	674.995235317272	1015.311539875495	580.857462173344	592.189819686626	1010.603406885448	493.462819463310	598.878851499591	1057.669332908332	797.467420874088	395.698357515320	1025.868972826997	669.103694967120	315.813974684544	1134.935487218065	615.304084125410	376.014972997147	1158.071755011302	529.339672613490	368.171514896901	1103.642533718667	455.025808324631	358.423787148249	973.983734344110	386.168666953785	309.289770414320	990.532828662704	255.605423232269	359.990475326425	983.400689402886	405.272020292151	608.696874365216	912.757140634814	303.411286104279	673.967008629603	952.401788815954	207.235387696299	611.042009149471	816.632066572377	42.439512576618	586.277514484185	987.270099333863	97.035053956789	619.834067126263	899.929166310836	36.419588805110	660.261358349621	1108.261498430634	44.366705310097	649.047340606686	820.376957113602	150.710381890629	397.706902989046	883.881099719601	121.286247015450	314.732706631552	985.127025644978	149.688856958101	335.442241370431	1082.969951570919	56.635925650015	301.457156372383	878.218477376602	1079.328953846936	240.901301822764	933.198580815843	823.570577592636	234.643355751769	1059.968826526809	1119.156790030680	822.062056143072	1301.503676606790	1075.079378836178	751.464876080995	
108	31.188142857143	765.814277185206	1015.828887410840	537.203929166418	953.554762708115	1429.934885108987	331.910725292063	1065.620180590083	1355.660350046312	485.684730430233	1004.003174132083	1440.708839092100	663.420338557102	976.379818334165	1493.394672263163	484.936807685187	998.115508403500	941.561888773208	637.073829314657	962.982363620776	962.381139807897	364.273711831572	1028.429244497703	738.894863257827	608.009543620089	943.114759570807	637.741793754963	674.513111882702	1010.203419790751	580.234750101766	591.122634790029	1004.877215291287	492.800274746928	598.072269050081	1055.263215086017	799.757634090041	395.131759620283	1024.384788570722	670.764952269112	315.649951800874	1133.772671283163	618.157765326087	375.914829862163	1158.641951444498	533.907645421226	368.148390301164	1108.381019757220	458.348123099403	358.183906993229	984.186815544948	381.177859763447	308.173329357826	1009.353415523631	251.756941279069	358.932189128158	977.152295194360	404.692433087665	608.141951663847	906.036253138658	303.260985086740	673.602533623328	944.945543150416	206.890802293335	610.747461159681	808.428240133055	42.367724490647	586.305655281514	979.070646903907	97.018780168708	619.789248367834	891.729471627482	36.418847189247	660.340340596012	1100.045485072220	44.418751583096	649.059873440319	846.960135792390	134.745307613269	395.899620076643	912.752695318789	110.466351621150	313.090151206649	1011.533434000870	146.055373247776	334.207018279590	1116.099850163290	60.624008565875	300.418173757314	872.474982873011	1079.570643888357	242.732926558225	912.868724302911	821.315761923088	236.164762499384	1069.745169197145	1120.916758793817	818.977968512417	1311.036752167565	1096.339642157309	741.358982052825	
109	31.199714285714	764.042784004825	1016.502386424742	538.075879516971	951.853317411161	1429.812157835142	331.883288593931	1064.763633015400	1355.271349516488	484.862928230505	1004.725730061235	1440.911538483396	662.920148372027	975.654097871181	1493.343933649963	484.717544599870	996.536339925477	940.991056200827	636.276823726481	960.011712978894	962.873466602384	363.679197513564	1024.639232544468	738.057785789191	606.236775111543	939.373938843545	637.578411651078	674.025969132303	1005.013883102509	579.554943615055	590.067690698484	999.022225591412	492.146020675848	597.305986120898	1052.609954067377	801.402120517358	394.455317033952	1022.355363063971	671.896749228162	315.307912209594	1131.683185374755	620.065834372656	375.933603800783	1158.129458864403	537.781366813859	368.239528384266	1112.187053326640	461.311236138057	358.041679151243	994.378451930428	375.950470012447	306.761423052357	1028.045441232320	248.327522694357	357.906346434416	970.811386856254	404.136838891616	607.623725248111	899.249752845928	303.112471107918	673.260730519488	937.445648626007	206.565498192133	610.477113571567	800.217444575339	42.319050697395	586.335649497646	970.870769189652	96.999534997050	619.743337955528	883.531865435841	36.432184512851	660.438848377680	1091.828370932907	44.467677100588	649.062945445926	874.296577294371	119.670516952036	393.595648498183	942.414963756809	100.545559181919	311.370860009089	1038.054614683341	143.200272187763	333.264157246757	1148.912878595554	65.791185604053	300.483225817483	866.431080828728	1080.108470852491	244.147083064049	893.733331761117	820.356632834173	237.857884021730	1079.363583123677	1122.680383034016	815.310622186323	1318.804499495016	1117.424282780966	731.072257833736	
110	31.211285714286	762.471687764059	1017.097355077503	538.773591578841	950.212290043443	1429.720104225833	331.742930366709	1063.966294836187	1354.876354349227	483.896001473321	1005.475282998225	1441.031405434762	662.270091096169	974.964208115528	1493.263342002507	484.405252421467	995.100172354812	940.421518888490	635.330421945536	957.301157357614	963.237710990956	362.918580480852	1020.864323668532	737.169761718857	604.493117313725	935.595668342248	637.383729667936	673.539515896074	999.796883916508	578.820930210123	589.063774281683	993.090556203372	491.499516153138	596.596806358661	1049.739188764805	802.371618310148	393.724132195573	1019.860822796804	672.501850848125	314.762566190126	1128.745063651139	621.025257676081	376.069655076913	1156.623155065557	540.934950358413	368.447742644517	1115.065166637988	463.895498985779	357.987727251693	1004.437219052981	370.669642420363	305.109059800631	1046.302032020921	245.475796143726	356.964097195116	964.416985914808	403.605631891183	607.150055493011	892.428028239116	302.972743870413	672.946693910071	929.927011156501	206.258062247559	610.229730241581	792.003654270663	42.298649382228	586.366995384912	962.671035532115	96.976229744934	619.694802927401	875.337765900819	36.462323461941	660.553707879685	1083.610849412602	44.513706075415	649.060515115907	901.901851130614	105.864613364981	390.916103147625	972.361972263423	91.822456104026	309.676750323164	1064.237957668633	141.301838633279	332.664276988298	1180.850766068532	72.194285403346	301.678442138232	860.068647649380	1080.963070351892	245.164785957106	875.951032818804	820.479089682401	239.695776891533	1088.819847143016	1124.441134616648	811.100658120371	1324.900026632873	1138.059194115795	720.697001397011	
111	31.222857142857	761.111488508337	1017.594463691915	539.267931477299	948.638389253859	1429.655469825141	331.483106801880	1063.217349348872	1354.481453184810	482.791705150107	1006.216743967633	1441.062988107587	661.468883915970	974.306034760815	1493.150267756301	483.995966154287	993.816823287809	939.869759262347	634.247043819070	954.891105541738	963.465050808326	361.990992013440	1017.171567222180	736.234556270143	602.845925636268	931.794150841890	637.157994078459	673.052495428372	994.610265172229	578.037156168824	588.138781293755	987.139327764985	490.856878138676	595.949610648761	1046.694381176745	802.660137268360	392.976311094475	1016.986937429969	672.597325524860	313.994585440808	1125.071041808932	621.076486949707	376.289100628775	1154.237330322980	543.365059146814	368.749523397712	1117.038903465947	466.080355767253	357.985251703408	1014.173787134535	365.493303040340	303.301792801169	1063.785427256928	243.284597961388	356.143416752270	958.010578132844	403.094641531185	606.720779857587	885.603203244057	302.847172372439	672.659510047894	922.414836868816	205.964828933929	610.000461475588	783.791811333432	42.309760784540	586.398058732174	954.473373562614	96.948886066890	619.642594892423	867.148162103254	36.509655249695	660.677203680134	1075.393092463396	44.557837259216	649.056149267728	929.216512497188	93.587357194635	388.049630390061	1001.975818293273	84.472937121283	308.123136722693	1089.576363011578	140.427891797098	332.416179127704	1211.323667159001	79.750756898413	303.886723875596	853.395108705628	1082.140824061124	245.824357895948	859.599527655895	821.460018881773	241.640436741097	1098.089410240457	1126.203290224335	806.393059351986	1329.447691646534	1157.989625314035	710.318121327702	
